<svg width="531" height="164" viewBox="0 0 531 164" fill="none" xmlns="http://www.w3.org/2000/svg">
<path fill-rule="evenodd" clip-rule="evenodd" d="M45.2042 103.416L97.6775 50.943C102.603 46.0179 110.588 46.0179 115.513 50.943C120.438 55.8681 120.438 63.8533 115.513 68.7784L63.0407 121.251C59.4263 119.181 56.0237 116.602 52.9369 113.515C49.8515 110.43 47.2739 107.029 45.2042 103.416Z" fill="white"/>
<path fill-rule="evenodd" clip-rule="evenodd" d="M70.1922 124.593C87.2314 130.896 107.13 127.204 120.819 113.515C132.722 101.612 137.067 85.0127 133.853 69.6812C128.147 69.9515 122.52 72.2654 118.163 76.6227L70.1922 124.593ZM41.8587 96.2597C35.5555 79.2205 39.2481 59.3214 52.9366 45.633C64.8398 33.7298 81.4392 29.3852 96.7706 32.599C96.5003 38.3048 94.1865 43.9319 89.8291 48.2893L41.8587 96.2597Z" fill="white"/>
<path fill-rule="evenodd" clip-rule="evenodd" d="M209 80.5C209 82.9853 206.985 85 204.5 85H203.706H174C174 92.1797 179.82 98 187 98H198.894H204.5C206.985 98 209 100.015 209 102.5C209 104.985 206.985 107 204.5 107H183.5C172.178 107 163 95.1355 163 80.5C163 65.8645 172.178 54 183.5 54H204.5C206.985 54 209 56.0147 209 58.5C209 60.9853 206.985 63 204.5 63H198.894H187C179.82 63 174 68.8203 174 76H203.706H204.5C206.985 76 209 78.0147 209 80.5Z" fill="white"/>
<path d="M255.464 100.323L253.016 93.8898H232.18L229.733 100.462C228.777 103.026 227.962 104.763 227.286 105.672C226.61 106.557 225.503 107 223.964 107C222.659 107 221.505 106.522 220.503 105.567C219.501 104.611 219 103.527 219 102.315C219 101.616 219.117 100.894 219.35 100.148C219.583 99.4019 219.967 98.3648 220.503 97.0363L233.613 63.754C233.986 62.7984 234.429 61.6563 234.942 60.3278C235.478 58.976 236.037 57.8573 236.62 56.9716C237.226 56.086 238.007 55.3751 238.962 54.8391C239.941 54.2797 241.142 54 242.563 54C244.008 54 245.209 54.2797 246.164 54.8391C247.143 55.3751 247.924 56.0743 248.507 56.9367C249.113 57.799 249.614 58.7313 250.01 59.7335C250.429 60.7124 250.954 62.0292 251.583 63.684L264.973 96.7566C266.022 99.2737 266.546 101.103 266.546 102.245C266.546 103.434 266.045 104.529 265.043 105.532C264.064 106.511 262.875 107 261.477 107C260.661 107 259.962 106.849 259.379 106.546C258.797 106.266 258.307 105.881 257.911 105.392C257.515 104.879 257.084 104.11 256.617 103.084C256.175 102.036 255.79 101.115 255.464 100.323ZM234.907 86.0937H250.22L242.493 64.9426L234.907 86.0937Z" fill="white"/>
<path fill-rule="evenodd" clip-rule="evenodd" d="M276.546 69.5C276.546 60.9396 283.486 54 292.046 54H294.546H300.546H315.546C318.032 54 320.046 56.0147 320.046 58.5C320.046 60.9853 318.032 63 315.546 63H300.546H294.546H294.046C290.457 63 287.546 65.9101 287.546 69.5C287.546 73.0899 290.457 76 294.046 76H297.546H300.546H305.046C313.607 76 320.546 82.9396 320.546 91.5C320.546 100.06 313.607 107 305.046 107H303.046H297.546H282.046C279.561 107 277.546 104.985 277.546 102.5C277.546 100.015 279.561 98 282.046 98H297.546H303.046H304.046C307.636 98 310.546 95.0899 310.546 91.5C310.546 87.9101 307.636 85 304.046 85H300.546H297.546H292.046C283.486 85 276.546 78.0604 276.546 69.5Z" fill="white"/>
<path d="M346.563 100.672V84.4156L333.649 65.0125C332.518 63.2645 331.713 61.9011 331.232 60.9222C330.775 59.9433 330.546 59.0926 330.546 58.3701C330.546 57.1814 331.015 56.1559 331.953 55.2935C332.915 54.4312 334.094 54 335.489 54C336.956 54 338.062 54.4079 338.807 55.2236C339.577 56.0161 340.719 57.6126 342.234 60.0132L352.119 75.5706L362.111 60.0132C362.712 59.0576 363.217 58.2535 363.626 57.6009C364.035 56.9483 364.48 56.3423 364.961 55.783C365.466 55.2003 366.019 54.7575 366.62 54.4545C367.221 54.1515 367.955 54 368.821 54C370.167 54 371.286 54.4312 372.176 55.2935C373.089 56.1326 373.546 57.1115 373.546 58.2302C373.546 59.1392 373.318 60.0482 372.861 60.9571C372.404 61.8661 371.622 63.1247 370.516 64.7329L357.277 84.4156V100.672C357.277 102.793 356.772 104.378 355.762 105.427C354.752 106.476 353.465 107 351.902 107C350.315 107 349.028 106.487 348.042 105.462C347.056 104.413 346.563 102.816 346.563 100.672Z" fill="white"/>
<path d="M383.546 84.94V60.2929C383.546 58.1953 384.011 56.622 384.941 55.5732C385.895 54.5244 387.138 54 388.673 54C390.277 54 391.544 54.5244 392.474 55.5732C393.427 56.622 393.904 58.1953 393.904 60.2929V85.4993C393.904 88.3661 394.218 90.7667 394.846 92.7012C395.497 94.6124 396.636 96.104 398.263 97.1761C399.891 98.2249 402.169 98.7493 405.099 98.7493C409.144 98.7493 412.004 97.6772 413.678 95.533C415.352 93.3654 416.189 90.0908 416.189 85.7091V60.2929C416.189 58.1719 416.654 56.5987 417.584 55.5732C418.514 54.5244 419.758 54 421.315 54C422.873 54 424.128 54.5244 425.082 55.5732C426.058 56.5987 426.546 58.1719 426.546 60.2929V84.94C426.546 88.9488 426.151 92.2933 425.361 94.9736C424.593 97.6539 423.129 100.008 420.966 102.036C419.107 103.76 416.944 105.019 414.48 105.811C412.015 106.604 409.132 107 405.831 107C401.902 107 398.519 106.58 395.683 105.741C392.846 104.879 390.533 103.562 388.743 101.791C386.952 99.9963 385.639 97.7122 384.802 94.9387C383.965 92.1418 383.546 88.8089 383.546 84.94Z" fill="white"/>
<path d="M449.969 60.223L469.979 90.4288V59.9433C469.979 57.9622 470.4 56.4822 471.241 55.5033C472.105 54.5011 473.262 54 474.71 54C476.205 54 477.385 54.5011 478.25 55.5033C479.114 56.4822 479.546 57.9622 479.546 59.9433V100.253C479.546 104.751 477.677 107 473.939 107C473.005 107 472.164 106.86 471.416 106.58C470.668 106.324 469.967 105.905 469.313 105.322C468.659 104.739 468.052 104.063 467.491 103.294C466.93 102.502 466.37 101.698 465.809 100.882L446.289 71.0257V101.057C446.289 103.015 445.833 104.495 444.922 105.497C444.011 106.499 442.843 107 441.418 107C439.946 107 438.766 106.499 437.878 105.497C436.99 104.471 436.546 102.991 436.546 101.057V61.5165C436.546 59.8384 436.733 58.5215 437.107 57.566C437.551 56.5172 438.287 55.6664 439.315 55.0139C440.343 54.338 441.453 54 442.644 54C443.579 54 444.373 54.1515 445.027 54.4545C445.705 54.7575 446.289 55.1653 446.779 55.6781C447.293 56.1909 447.807 56.8551 448.321 57.6708C448.859 58.4866 449.408 59.3373 449.969 60.223Z" fill="white"/>
</svg>
